<svg width="120" height="50" viewBox="0 0 120 50" fill="none" xmlns="http://www.w3.org/2000/svg">
<path d="M11.3373 47.1194L28.4782 37.1698H23.1352L10.8633 42.9456L11.3373 47.1194Z" fill="#CF181F"/>
<path d="M28.4782 37.1697V39.345L11.371 49.3022V46.6832L28.4782 37.1697Z" fill="#9C1116"/>
<path d="M0 49.3022H11.3583L29.0366 18.5082L28.4795 0.112522L0 49.3022Z" fill="#9C1116"/>
<path d="M28.3767 19.6362L28.4606 0.112511L51.1187 39.4033H39.7477L28.3767 19.6362Z" fill="#CF181F"/>
<path d="M28.4782 0.112486V4.08391L42.6919 24.7327L28.4782 0.112486Z" fill="#9C1116"/>
<path d="M28.4783 0.112486V4.08391L14.2645 24.7327L28.4783 0.112486Z" fill="#690A0D"/>
<path d="M25.1279 33.261H28.3767V27.677L25.1279 33.261Z" fill="#CF181F"/>
<path d="M28.3767 27.677V33.261H31.6256L28.3767 27.677Z" fill="#9C1116"/>
<path d="M64.4139 23.7039C64.4139 25.2039 63.98 25.9538 63.1123 25.9538C62.9759 25.9538 62.5234 25.8671 61.7549 25.6935C60.9863 25.52 60.4222 25.4332 60.0628 25.4332C58.6743 25.4332 57.9801 26.3691 57.9801 28.241V33.7264C57.9801 34.371 58.2033 34.8297 58.6496 35.1024C58.9099 35.2636 59.5607 35.4805 60.602 35.7532C61.1598 35.8896 61.4388 36.1003 61.4388 36.3855C61.4388 36.7202 61.3892 36.9185 61.29 36.9805C61.2032 37.0549 60.9739 37.0735 60.602 37.0363C57.8748 36.7512 55.7178 36.7388 54.1311 36.9991C53.6352 37.0859 53.3191 37.0859 53.1827 36.9991C53.0712 36.9247 53.0154 36.7078 53.0154 36.3483C53.0154 36.0136 53.3563 35.747 54.0381 35.5487C54.7323 35.3504 55.0794 34.7553 55.0794 33.7636V27.7947C55.0794 27.0137 54.974 26.4869 54.7633 26.2142C54.5649 25.9414 54.0071 25.5758 53.0897 25.1171L52.9782 25.0613C52.7303 24.9373 52.6063 24.7638 52.6063 24.5407C52.6063 24.2927 52.8604 24.082 53.3687 23.9084C54.224 23.6109 55.005 23.1894 55.7116 22.644C56.2942 22.1853 56.6661 21.956 56.8273 21.956C57.2735 21.956 57.5401 22.3403 57.6268 23.1089C57.7384 24.0882 57.8686 24.5778 58.0173 24.5778C58.0297 24.5778 58.7239 24.113 60.0999 23.1832C61.0049 22.5758 61.9966 22.2721 63.0751 22.2721C63.9676 22.2721 64.4139 22.7494 64.4139 23.7039ZM77.1327 35.1396C77.1327 35.7346 76.5872 36.2429 75.4963 36.6644C74.5294 37.0363 73.5501 37.2222 72.5584 37.2222C69.8683 37.2222 68.5233 35.7904 68.5233 32.9268V26.1956C68.5233 25.3402 68.4551 24.8196 68.3188 24.6336C68.1824 24.4353 67.73 24.2431 66.9614 24.0572C66.763 24.0076 66.6639 23.8155 66.6639 23.4808C66.6639 23.1213 66.7382 22.9043 66.887 22.8299C68.2258 22.1729 69.3911 20.9953 70.3828 19.297C70.5192 19.0614 70.7857 18.987 71.1824 19.0738C71.4551 19.1606 71.5976 19.3217 71.61 19.5573L71.6844 21.8816C71.6844 22.0552 71.7154 22.1791 71.7774 22.2535C71.8642 22.3651 72.0625 22.4209 72.3724 22.4209H76.519C76.7546 22.4209 76.7546 22.7122 76.519 23.2948C76.2339 24.0014 75.8124 24.3547 75.2546 24.3547H72.4468C71.9633 24.3547 71.6658 24.4353 71.5543 24.5964C71.4675 24.708 71.4241 25.0117 71.4241 25.5076V31.588C71.4241 33.1252 71.5605 34.0983 71.8332 34.5074C72.1927 35.028 73.0294 35.2884 74.3435 35.2884C74.7773 35.2884 75.3042 35.2202 75.924 35.0838C76.5438 34.9351 76.8723 34.8607 76.9095 34.8607C77.0583 34.8607 77.1327 34.9537 77.1327 35.1396ZM97.3823 23.1832C97.3823 23.4188 96.9918 23.6605 96.2108 23.9084C95.7025 24.0572 95.2687 24.5654 94.9092 25.4332C94.3017 26.896 93.2418 29.0406 91.7295 31.867C90.4526 34.2595 89.4671 36.0074 88.7729 37.1106C88.7357 37.1974 88.6552 37.2346 88.5312 37.2222C88.4072 37.2098 88.3143 37.1602 88.2523 37.0735C85.6242 33.2925 83.3743 29.4249 81.5024 25.4704C81.1057 24.6274 80.7152 24.1564 80.3309 24.0572C79.6119 23.7721 79.2525 23.5179 79.2525 23.2948C79.2525 22.7989 79.4942 22.582 79.9776 22.644C80.7338 22.7432 81.8557 22.768 83.3433 22.7184C84.7813 22.6812 85.7916 22.6068 86.3742 22.4952C86.7337 22.4209 86.9135 22.5572 86.9135 22.9043C86.9135 23.3382 86.6593 23.6171 86.1511 23.7411C85.1842 24.0014 84.7007 24.3361 84.7007 24.7452C84.7007 24.9311 84.7627 25.1977 84.8866 25.5448C85.3081 26.5861 86.0643 28.0922 87.1552 30.0633C88.2461 32.0219 88.8659 33.0012 89.0147 33.0012C89.1262 33.0012 89.6531 32.0591 90.5952 30.1748C91.5869 28.179 92.2997 26.5675 92.7336 25.3402C92.7956 25.2039 92.8266 25.0675 92.8266 24.9311C92.8266 24.4477 92.529 24.051 91.934 23.7411C91.3514 23.5055 91.0601 23.2824 91.0601 23.0717C91.0601 22.6378 91.2522 22.458 91.6365 22.5324C92.1324 22.6192 93.0063 22.6936 94.2584 22.7556C95.5104 22.8175 96.3224 22.8299 96.6943 22.7928C97.1529 22.706 97.3823 22.8361 97.3823 23.1832ZM117.725 22.9787C117.725 23.3134 117.452 23.6047 116.907 23.8526C116.374 24.1006 115.965 24.5716 115.679 25.2658C114.415 28.2906 112.779 31.7554 110.77 35.6603C110.312 36.4908 109.673 37.7119 108.855 39.3234C108.049 40.9473 106.816 43.0671 105.155 45.6828C104.609 46.5505 103.866 46.9038 102.923 46.7427C102.105 46.6187 101.417 46.3832 100.859 46.0361C100.314 45.7014 100.072 45.3791 100.134 45.0692C100.246 44.5485 100.618 44.2572 101.25 44.1952C102.341 44.096 103.054 43.9969 103.388 43.8977C103.797 43.7613 104.151 43.5072 104.448 43.1353C105.08 42.3172 105.855 41.0961 106.773 39.4722C107.628 37.9598 108.056 37.1106 108.056 36.9247C108.056 36.8007 107.281 35.307 105.731 32.4434C103.636 28.5757 102.366 26.2266 101.919 25.396C101.51 24.6026 101.07 24.144 100.599 24.02C99.8058 23.8093 99.4091 23.5427 99.4091 23.2204C99.4091 22.7494 99.6632 22.5324 100.171 22.5696C102.787 22.768 105.186 22.6936 107.368 22.3465C107.752 22.2845 107.944 22.4085 107.944 22.7184C107.944 23.1522 107.64 23.4436 107.033 23.5923C106.116 23.8155 105.657 24.2183 105.657 24.801C105.657 24.9125 105.682 25.0303 105.731 25.1543C106.339 26.5799 107.157 28.2968 108.186 30.305C109.153 32.2017 109.68 33.15 109.766 33.15C109.878 33.15 110.287 32.3752 110.994 30.8256C111.812 29.0158 112.574 27.1129 113.281 25.1171C113.293 25.0675 113.299 25.0117 113.299 24.9497C113.299 24.3547 113.002 23.9394 112.407 23.7039C111.713 23.4436 111.365 23.2204 111.365 23.0345C111.365 22.613 111.582 22.4333 112.016 22.4952C113.789 22.768 115.438 22.7928 116.962 22.5696C117.322 22.52 117.539 22.52 117.613 22.5696C117.688 22.6192 117.725 22.7556 117.725 22.9787Z" fill="#9C1116"/>
</svg>
